<?xml version="1.0" encoding="utf-8"?>
<!-- Generator: Adobe Illustrator 18.1.1, SVG Export Plug-In . SVG Version: 6.00 Build 0)  -->
<svg version="1.1" id="Calque_1" xmlns="http://www.w3.org/2000/svg" xmlns:xlink="http://www.w3.org/1999/xlink" x="0px" y="0px"
	 viewBox="0 0 256 256" enable-background="new 0 0 256 256" xml:space="preserve">
<polyline fill="#C4E4F8" stroke="#81A1D4" stroke-width="1.3109" points="212.3,68.6 212.3,252.7 4.4,252.7 4.4,2.8 142.9,2.8 "/>
<polyline fill="none" stroke="#E6F3FB" stroke-width="2.6156" points="210.1,68.9 210.1,251.1 6.5,251.1 6.5,4.5 142.5,4.5 "/>
<polygon fill="#D5ECF8" stroke="#E6F3FB" stroke-width="2.4815" points="144.6,7.5 144.6,67.4 207.7,67.4 "/>
<polygon fill="none" stroke="#81A1D4" stroke-width="1.3461" points="143.4,3.6 143.4,68.9 211.6,68.9 "/>
<path fill="#C4E4F8" stroke="#81A1D4" stroke-width="1.3109" d="M143.4,2.5"/>
<path fill="#C4E4F8" stroke="#81A1D4" stroke-width="1.3109" d="M212.3,67.9"/>
<line fill="none" stroke="#81A1D4" stroke-width="2.6156" x1="30.6" y1="86.6" x2="169.5" y2="86.6"/>
<line fill="none" stroke="#81A1D4" stroke-width="2.6156" x1="30.6" y1="121.5" x2="169.5" y2="121.5"/>
<line fill="none" stroke="#81A1D4" stroke-width="2.6156" x1="30.6" y1="157.5" x2="169.5" y2="157.5"/>
<g>
	
		<linearGradient id="SVGID_1_" gradientUnits="userSpaceOnUse" x1="-1538.2478" y1="1523.9446" x2="-1537.9739" y2="1523.9446" gradientTransform="matrix(28.2823 29.8526 29.8526 -28.2823 -1783.5958 89095.3984)">
		<stop  offset="0" style="stop-color:#010202"/>
		<stop  offset="0.9831" style="stop-color:#5B5B5E"/>
		<stop  offset="1" style="stop-color:#5B5B5E"/>
	</linearGradient>
	<path fill="url(#SVGID_1_)" d="M237.1,58.9c0,0-36.4,6.8-51.5,39.8c-0.6,1.2-0.7,11.8,9.3-1C190.9,92.2,199.8,75.7,237.1,58.9z"/>
	
		<linearGradient id="SVGID_2_" gradientUnits="userSpaceOnUse" x1="-1543.3082" y1="1527.6974" x2="-1543.0343" y2="1527.6974" gradientTransform="matrix(57.2518 57.2518 57.2518 -57.2518 1062.3032 175939.8438)">
		<stop  offset="0" style="stop-color:#F6A02A"/>
		<stop  offset="3.932600e-02" style="stop-color:#F6A02A"/>
		<stop  offset="0.4157" style="stop-color:#FFD923"/>
		<stop  offset="0.5062" style="stop-color:#FED323"/>
		<stop  offset="0.6545" style="stop-color:#FBC222"/>
		<stop  offset="0.8413" style="stop-color:#F6A421"/>
		<stop  offset="0.9438" style="stop-color:#F39020"/>
		<stop  offset="1" style="stop-color:#F39020"/>
	</linearGradient>
	<path fill="url(#SVGID_2_)" d="M184.2,134.9c-41,41-77.8,70.8-82.1,66.4c-4.3-4.3,25.4-41.1,66.4-82.1c41-41,77.8-70.8,82.1-66.4
		C255,57.1,225.3,93.8,184.2,134.9z"/>
	
		<radialGradient id="SVGID_3_" cx="-1521.2034" cy="1546.9753" r="0.274" gradientTransform="matrix(9.2467 9.2467 9.2467 -9.2467 -134.6801 28570.2988)" gradientUnits="userSpaceOnUse">
		<stop  offset="0" style="stop-color:#010202"/>
		<stop  offset="0.1361" style="stop-color:#040607"/>
		<stop  offset="0.365" style="stop-color:#12161A"/>
		<stop  offset="0.6588" style="stop-color:#272E32"/>
		<stop  offset="1" style="stop-color:#475154"/>
	</radialGradient>
	<path fill="url(#SVGID_3_)" d="M104.3,200.5c-1.9,1.9-3.8,3.2-4.2,2.8c-0.4-0.4,0.9-2.3,2.8-4.2c1.9-1.9,3.8-3.2,4.2-2.8
		C107.5,196.7,106.3,198.6,104.3,200.5z"/>
	
		<linearGradient id="SVGID_4_" gradientUnits="userSpaceOnUse" x1="-1541.7898" y1="1531.4766" x2="-1541.5159" y2="1531.4766" gradientTransform="matrix(42.3932 42.3932 42.3932 -42.3932 545.6575 130469.0312)">
		<stop  offset="0" style="stop-color:#E4E2DF"/>
		<stop  offset="0" style="stop-color:#DFDAD7"/>
		<stop  offset="6.549486e-02" style="stop-color:#CEC9C8"/>
		<stop  offset="0.1903" style="stop-color:#A4A0A3"/>
		<stop  offset="0.264" style="stop-color:#8B878D"/>
		<stop  offset="0.5225" style="stop-color:#C4C5C5"/>
		<stop  offset="0.5895" style="stop-color:#BBBBBC"/>
		<stop  offset="0.7185" style="stop-color:#A4A1A4"/>
		<stop  offset="0.8764" style="stop-color:#807C81"/>
		<stop  offset="1" style="stop-color:#D1D3D4"/>
		<stop  offset="1" style="stop-color:#A7A9AC"/>
	</linearGradient>
	<path fill="url(#SVGID_4_)" d="M120.7,171.2c-13.5,16.4-20.8,27.9-18.5,30.2c2.3,2.3,13.8-5,30.2-18.5L120.7,171.2z"/>
	
		<linearGradient id="SVGID_5_" gradientUnits="userSpaceOnUse" x1="-1543.7654" y1="1528.2354" x2="-1543.4915" y2="1528.2354" gradientTransform="matrix(64.0249 64.0249 64.0249 -64.0249 1149.7244 196814.9688)">
		<stop  offset="0" style="stop-color:#E4E2DF"/>
		<stop  offset="0" style="stop-color:#DFDAD7"/>
		<stop  offset="6.549486e-02" style="stop-color:#CEC9C8"/>
		<stop  offset="0.1903" style="stop-color:#A4A0A3"/>
		<stop  offset="0.264" style="stop-color:#8B878D"/>
		<stop  offset="0.5225" style="stop-color:#C2C3C3"/>
		<stop  offset="0.5895" style="stop-color:#BABABB"/>
		<stop  offset="0.7185" style="stop-color:#A3A1A3"/>
		<stop  offset="0.8764" style="stop-color:#807C81"/>
		<stop  offset="1" style="stop-color:#D1D3D4"/>
		<stop  offset="1" style="stop-color:#A7A9AC"/>
	</linearGradient>
	<path fill="url(#SVGID_5_)" d="M173,148c-0.9,0.9-2.4,0.9-3.3,0l-14.2-14.2c-0.9-0.9-0.9-2.4,0-3.3c0.9-0.9,2.4-0.9,3.3,0
		l14.2,14.2C173.9,145.6,173.9,147.1,173,148z"/>
	
		<linearGradient id="SVGID_6_" gradientUnits="userSpaceOnUse" x1="-1541.1244" y1="1523.1165" x2="-1540.8505" y2="1523.1165" gradientTransform="matrix(38.026 38.026 38.026 -38.026 919.4147 116579.3125)">
		<stop  offset="0" style="stop-color:#A7A9AC"/>
		<stop  offset="0" style="stop-color:#D1D3D4"/>
		<stop  offset="0.1236" style="stop-color:#807C81"/>
		<stop  offset="0.2815" style="stop-color:#A19EA1"/>
		<stop  offset="0.4105" style="stop-color:#B5B5B6"/>
		<stop  offset="0.4775" style="stop-color:#BDBEBE"/>
		<stop  offset="0.736" style="stop-color:#8B878D"/>
		<stop  offset="0.8097" style="stop-color:#A4A0A3"/>
		<stop  offset="0.9345" style="stop-color:#CEC9C8"/>
		<stop  offset="1" style="stop-color:#DFDAD7"/>
		<stop  offset="1" style="stop-color:#E4E2DF"/>
	</linearGradient>
	<path fill="url(#SVGID_6_)" d="M245.5,53.5c-4.3,2-10.7,6.4-18.8,12.8l10.4,10.4c6.4-8.1,10.8-14.5,12.8-18.8L245.5,53.5z"/>
</g>
</svg>
