<?xml version="1.0"?>
<svg version="1.1" xmlns="http://www.w3.org/2000/svg" xmlns:xlink="http://www.w3.org/1999/xlink" width="512" height="512">
    <desc iVinci="yes" version="4.5" gridStep="20" showGrid="no" snapToGrid="no" codePlatform="0"/>
    <g id="Layer1" opacity="1">
        <g id="Shape1">
            <desc shapeID="1" type="0" basicInfo-basicType="0" basicInfo-roundedRectRadius="12" basicInfo-polygonSides="6" basicInfo-starPoints="5" bounding="rect(-161.94,-185.675,323.88,371.35)" text="" font-familyName="" font-pixelSize="20" font-bold="0" font-underline="0" font-alignment="1" strokeStyle="0" markerStart="0" markerEnd="0" shadowEnabled="0" shadowOffsetX="0" shadowOffsetY="2" shadowBlur="4" shadowOpacity="160" blurEnabled="0" blurRadius="4" transform="matrix(1,0,0,1,211.94,265.314)" pers-center="0,0" pers-size="0,0" pers-start="0,0" pers-end="0,0" locked="0" mesh="" flag=""/>
            <path id="shapePath1" d="M373.88,239.889 L373.88,315.364 C373.88,370.708 298.029,450.989 236.59,450.989 L50,450.989 L50,79.639 L318.237,79.639 L298.996,98.881 C294.152,103.725 290.511,109.453 288.23,115.693 L86.054,115.693 L86.054,414.936 C192.718,414.936 207.142,414.936 236.041,414.936 C289.092,414.936 267.588,346.352 267.588,346.352 C267.588,346.352 337.826,369.144 337.826,312.25 C337.826,305.946 337.826,292.878 337.826,276.335 C337.925,276.236 338.024,276.142 338.123,276.042 L373.88,239.889 Z" style="stroke:none;fill-rule:evenodd;fill:#baeaff;fill-opacity:1;"/>
        </g>
        <g id="Shape2">
            <desc shapeID="2" type="0" basicInfo-basicType="0" basicInfo-roundedRectRadius="12" basicInfo-polygonSides="6" basicInfo-starPoints="5" bounding="rect(-206,-170.748,412,341.496)" text="" font-familyName="" font-pixelSize="20" font-bold="0" font-underline="0" font-alignment="1" strokeStyle="0" markerStart="0" markerEnd="0" shadowEnabled="0" shadowOffsetX="0" shadowOffsetY="2" shadowBlur="4" shadowOpacity="160" blurEnabled="0" blurRadius="4" transform="matrix(0.829176,0,0,0.829176,286.81,194.148)" pers-center="0,0" pers-size="0,0" pers-start="0,0" pers-end="0,0" locked="0" mesh="" flag=""/>
            <path id="shapePath2" d="M380.488,211.846 C357.667,242.802 323.838,273.347 285.716,268.36 C275.387,282.754 263.888,302.836 251.095,326.169 L221.54,335.429 C246.55,286.703 279.964,232.808 315.803,191.862 C300.283,201.951 274.78,223.656 252.597,246.539 C232.583,204.81 253.677,166.16 284.261,136.644 C283.385,150.545 289.57,163.23 294.196,169.754 C293.413,158.123 294.764,137.358 303.249,119.349 C320.285,105.004 335.347,94.6822 352.56,85.6458 C349.766,95.8165 352.147,108.003 355.422,115.609 C356.905,105.073 363.184,85.1707 370.435,76.9179 C391.91,63.079 423.692,52.0228 457.62,52.5883 C453.868,73.4511 442.906,107.336 428.077,128.361 C416.112,136.036 400.291,140.536 387.688,142.691 C398.13,145.617 409.832,146.474 419.988,145.72 C412.601,161.221 405.088,175.437 393.733,192.859 C378.082,201.586 358.082,205.431 344.396,206.158 C353.961,211.158 371.396,214.082 380.488,211.846 M195.508,310.464 L116,310.464 L116,335.728 L195.508,335.728 L195.508,310.464 Z" style="stroke:none;fill-rule:nonzero;fill:#020b7a;fill-opacity:1;"/>
        </g>
    </g>
</svg>
